<?xml version="1.0" encoding="UTF-8"?>
<svg width="256px" height="240px" viewBox="0 0 256 240" version="1.1" xmlns="http://www.w3.org/2000/svg" preserveAspectRatio="xMidYMid">
    <title>MetaMask</title>
    <g>
        <polygon fill="#E17726" points="250.066667 0 146.666667 81.0666667 164.666667 34.4"></polygon>
        <polygon fill="#E27625" points="6.4 0 108.8 81.0666667 91.7333333 34.4"></polygon>
        <polygon fill="#E27625" points="213.333333 170.666667 186.666667 209.066667 244.266667 224 260.266667 171.733333"></polygon>
        <polygon fill="#E27625" points="0 171.733333 15.7333333 224 73.3333333 209.066667 46.6666667 170.666667"></polygon>
        <polygon fill="#E27625" points="70.4 105.6 54.4 128 111.466667 130.133333 109.866667 68.2666667"></polygon>
        <polygon fill="#E27625" points="186.133333 105.6 146.666667 68.2666667 145.066667 130.133333 202.133333 128"></polygon>
        <polygon fill="#E27625" points="73.3333333 209.066667 108.266667 193.066667 77.8666667 172.266667"></polygon>
        <polygon fill="#E27625" points="148.266667 193.066667 183.2 209.066667 178.666667 172.266667"></polygon>
        <polygon fill="#D5BFB2" points="183.2 209.066667 148.266667 193.066667 151.466667 213.333333 151.466667 223.466667"></polygon>
        <polygon fill="#D5BFB2" points="73.3333333 209.066667 105.066667 223.466667 105.066667 213.333333 108.266667 193.066667"></polygon>
        <polygon fill="#233447" points="105.6 157.866667 76.8 150.4 97.0666667 141.333333"></polygon>
        <polygon fill="#233447" points="150.933333 157.866667 159.466667 141.333333 179.733333 150.4"></polygon>
        <polygon fill="#CC6228" points="73.3333333 209.066667 78.4 170.666667 46.6666667 171.733333"></polygon>
        <polygon fill="#CC6228" points="178.133333 170.666667 183.2 209.066667 209.866667 171.733333"></polygon>
        <polygon fill="#CC6228" points="202.133333 128 145.066667 130.133333 150.933333 157.866667 159.466667 141.333333 179.733333 150.4"></polygon>
        <polygon fill="#CC6228" points="76.8 150.4 97.0666667 141.333333 105.6 157.866667 111.466667 130.133333 54.4 128"></polygon>
        <polygon fill="#E27525" points="54.4 128 77.8666667 172.266667 76.8 150.4"></polygon>
        <polygon fill="#E27525" points="179.733333 150.4 178.666667 172.266667 202.133333 128"></polygon>
        <polygon fill="#E27525" points="111.466667 130.133333 105.6 157.866667 113.066667 190.933333 114.666667 148.266667"></polygon>
        <polygon fill="#E27525" points="145.066667 130.133333 141.866667 148.266667 143.466667 190.933333 150.933333 157.866667"></polygon>
        <polygon fill="#F5841F" points="150.933333 157.866667 143.466667 190.933333 148.266667 193.066667 178.666667 172.266667 179.733333 150.4"></polygon>
        <polygon fill="#F5841F" points="76.8 150.4 77.8666667 172.266667 108.266667 193.066667 113.066667 190.933333 105.6 157.866667"></polygon>
        <polygon fill="#C0AC9D" points="151.466667 223.466667 151.466667 213.333333 148.266667 210.666667 108.266667 210.666667 105.066667 213.333333 105.066667 223.466667 73.3333333 209.066667 83.4666667 217.6 108.266667 234.666667 148.266667 234.666667 173.066667 217.6 183.2 209.066667"></polygon>
        <polygon fill="#161616" points="148.266667 193.066667 143.466667 190.933333 113.066667 190.933333 108.266667 193.066667 105.066667 213.333333 108.266667 210.666667 148.266667 210.666667 151.466667 213.333333"></polygon>
        <polygon fill="#763E1A" points="248.533333 81.0666667 256 41.6 250.066667 0 148.266667 74.1333333 186.133333 105.6 242.666667 120.533333 254.4 107.733333 249.066667 103.466667 257.6 94.9333333 251.2 89.6 259.733333 82.1333333"></polygon>
        <polygon fill="#763E1A" points="0 41.6 7.46666667 81.0666667 -2.13162821e-14 82.1333333 8.53333333 89.6 2.13333333 94.9333333 10.6666667 103.466667 5.33333333 107.733333 17.0666667 120.533333 73.6 105.6 111.466667 74.1333333 9.66666667 0"></polygon>
        <polygon fill="#F5841F" points="242.666667 120.533333 186.133333 105.6 202.133333 128 178.666667 172.266667 209.866667 171.733333 260.266667 171.733333"></polygon>
        <polygon fill="#F5841F" points="73.6 105.6 17.0666667 120.533333 -2.13162821e-14 171.733333 46.6666667 171.733333 77.8666667 172.266667 54.4 128"></polygon>
        <polygon fill="#F5841F" points="145.066667 130.133333 148.266667 74.1333333 164.666667 34.4 91.7333333 34.4 108.266667 74.1333333 111.466667 130.133333 113.066667 148.266667 113.066667 190.933333 143.466667 190.933333 143.466667 148.266667"></polygon>
    </g>
</svg>
